<svg width="54" height="31" viewBox="0 0 54 31" fill="none" xmlns="http://www.w3.org/2000/svg">
<path d="M40.5764 10.1158L45.037 2.40671C45.4249 1.6552 45.134 0.733985 44.4067 0.346106C43.7037 -0.0175302 42.831 0.200652 42.3946 0.87944L37.837 8.73398C30.9037 5.80065 23.0976 5.80065 16.1643 8.73398L11.6067 0.87944C11.1461 0.17641 10.2007 -0.0417726 9.49762 0.394591C8.81883 0.830955 8.60065 1.70368 8.96429 2.40671L13.4249 10.1158C5.90974 14.4067 1.01277 22.14 0.333984 30.7703H53.6673C52.9885 22.14 48.0916 14.4067 40.5764 10.1158ZM14.8794 24.1037C13.2067 24.1037 11.8491 22.7461 11.8491 21.0734C11.8491 19.4007 13.2067 18.0431 14.8794 18.0431C16.5522 18.0431 17.9097 19.4007 17.9097 21.0734C17.9097 22.7461 16.5522 24.1037 14.8794 24.1037ZM39.1219 24.1037C37.4491 24.1037 36.0916 22.7461 36.0916 21.0734C36.0916 19.4007 37.4491 18.0431 39.1219 18.0431C40.7946 18.0431 42.1522 19.4007 42.1522 21.0734C42.1522 22.7461 40.7946 24.1037 39.1219 24.1037Z" fill="white"/>
</svg>
