<svg width="57" height="22" viewBox="0 0 57 22" fill="none" xmlns="http://www.w3.org/2000/svg">
<path d="M4.27833 6.41194C4.16797 6.41194 4.14038 6.35676 4.19556 6.27399L4.77494 5.52906C4.83012 5.44629 4.96807 5.39111 5.07843 5.39111H14.928C15.0384 5.39111 15.0659 5.47388 15.0108 5.55665L14.5417 6.27399C14.4866 6.35676 14.3486 6.43953 14.2658 6.43953L4.27833 6.41194Z" fill="#00ACD7"/>
<path d="M0.110359 8.94795C2.30227e-07 8.94795 -0.0275899 8.89277 0.0275897 8.81L0.606976 8.06507C0.662155 7.9823 0.800104 7.92712 0.910464 7.92712H13.4914C13.6018 7.92712 13.657 8.00989 13.6294 8.09266L13.4086 8.75482C13.3811 8.86518 13.2707 8.92036 13.1603 8.92036L0.110359 8.94795Z" fill="#00ACD7"/>
<path d="M6.78614 11.4866C6.67578 11.4866 6.64819 11.4039 6.70337 11.3211L7.08963 10.6314C7.14481 10.5486 7.25517 10.4658 7.36553 10.4658H12.8835C12.9938 10.4658 13.049 10.5486 13.049 10.6589L12.9938 11.3211C12.9938 11.4315 12.8835 11.5142 12.8007 11.5142L6.78614 11.4866Z" fill="#00ACD7"/>
<path d="M35.4277 5.91369C33.6896 6.35513 32.5032 6.6862 30.7926 7.12764C30.3788 7.238 30.3512 7.26559 29.9925 6.85174C29.5787 6.38272 29.2752 6.07923 28.6958 5.80333C26.9576 4.94805 25.2747 5.19635 23.702 6.21718C21.8259 7.43113 20.8603 9.22447 20.8879 11.4592C20.9155 13.6664 22.4329 15.4874 24.6125 15.7908C26.4886 16.0391 28.0612 15.377 29.3028 13.9699C29.5511 13.6664 29.7718 13.3353 30.0477 12.9491C29.0545 12.9491 27.8129 12.9491 24.7229 12.9491C24.1435 12.9491 24.0055 12.5904 24.1987 12.1214C24.5573 11.2661 25.2195 9.83144 25.6057 9.11411C25.6885 8.94857 25.8816 8.67267 26.2955 8.67267C27.7026 8.67267 32.8895 8.67267 36.3382 8.67267C36.283 9.41759 36.283 10.1625 36.1726 10.9074C35.8692 12.8939 35.1242 14.7148 33.9103 16.315C31.9238 18.9361 29.3304 20.5639 26.0472 21.0053C23.3434 21.364 20.8327 20.8398 18.6255 19.1844C16.5839 17.6394 15.4251 15.5977 15.1216 13.0594C14.763 10.0522 15.6458 7.34836 17.4668 4.97564C19.4256 2.40978 22.0191 0.781985 25.1919 0.202599C27.7853 -0.266427 30.2684 0.0370608 32.5032 1.5545C33.9655 2.52014 35.0139 3.84445 35.7036 5.44466C35.8692 5.69297 35.7588 5.83092 35.4277 5.91369Z" fill="#00ACD7"/>
<path d="M44.5595 21.1714C42.0489 21.1162 39.7589 20.3988 37.8276 18.7435C36.1998 17.3364 35.179 15.543 34.8479 13.4186C34.3513 10.301 35.2066 7.54199 37.0827 5.0865C39.0968 2.43788 41.5247 1.05839 44.8079 0.479002C47.622 -0.0176146 50.2706 0.258283 52.6709 1.88608C54.8505 3.37593 56.2024 5.38999 56.5611 8.03861C57.0301 11.7632 55.9541 14.7981 53.3883 17.3915C51.5674 19.2401 49.3326 20.3988 46.7667 20.923C46.0218 21.061 45.2769 21.0886 44.5595 21.1714ZM51.1259 10.0251C51.0983 9.6664 51.0983 9.39051 51.0431 9.11461C50.5465 6.38322 48.0359 4.83819 45.4148 5.44517C42.849 6.02455 41.1936 7.65235 40.5866 10.2458C40.09 12.3978 41.1384 14.5774 43.1249 15.4603C44.6423 16.1224 46.1597 16.0396 47.622 15.2947C49.8016 14.1635 50.988 12.3978 51.1259 10.0251Z" fill="#00ACD7"/>
</svg>
