<svg width="33" height="43" viewBox="0 0 33 43" fill="none" xmlns="http://www.w3.org/2000/svg">
<path d="M16.9731 10.2812C18.7412 10.2812 20.9575 9.01679 22.2773 7.33084C23.4727 5.80294 24.3442 3.66916 24.3442 1.53538C24.3442 1.24561 24.3193 0.955837 24.2695 0.71875C22.3022 0.797779 19.9365 2.11493 18.5171 3.87991C17.3965 5.2234 16.3755 7.33084 16.3755 9.49096C16.3755 9.80708 16.4253 10.1232 16.4502 10.2286C16.5747 10.2549 16.7739 10.2812 16.9731 10.2812ZM10.7476 42.1562C13.1631 42.1562 14.2339 40.444 17.2471 40.444C20.3101 40.444 20.9824 42.1036 23.6719 42.1036C26.3115 42.1036 28.0796 39.522 29.7481 36.993C31.6157 34.0953 32.3877 31.2503 32.4375 31.1185C32.2632 31.0659 27.208 28.8794 27.208 22.7415C27.208 17.4202 31.1924 15.023 31.4165 14.8386C28.7769 10.8345 24.7676 10.7291 23.6719 10.7291C20.7085 10.7291 18.293 12.6258 16.7739 12.6258C15.1304 12.6258 12.9639 10.8345 10.3989 10.8345C5.51807 10.8345 0.5625 15.102 0.5625 23.163C0.5625 28.1681 2.40527 33.4631 4.67139 36.8877C6.61377 39.7854 8.30713 42.1562 10.7476 42.1562Z" fill="white"/>
</svg>
