<svg width="51" height="51" viewBox="0 0 51 51" fill="none" xmlns="http://www.w3.org/2000/svg">
<g clip-path="url(#clip0_743_14928)">
<path d="M46.75 4.25H4.25V46.75H46.75V4.25Z" fill="#EDD719"/>
<path d="M25.5 29.75V27.625H28.6875V28.6875H32.9375V26.5625H27.625C26.4563 26.5625 25.5 25.6062 25.5 24.4375V21.25C25.5 20.0812 26.4563 19.125 27.625 19.125H34C35.1688 19.125 36.125 20.0812 36.125 21.25V23.375H32.9375V22.3125H28.6875V24.4375H34C35.1688 24.4375 36.125 25.3938 36.125 26.5625V29.75C36.125 30.9187 35.1688 31.875 34 31.875H27.625C26.4563 31.875 25.5 30.9187 25.5 29.75ZM19.125 19.125V28.6875H15.9375V26.5625H12.75V28.6875C12.75 30.4513 14.1738 31.875 15.9375 31.875H19.125C20.8888 31.875 22.3125 30.4513 22.3125 28.6875V19.125C22.3125 19.125 20.8888 19.125 19.125 19.125Z" fill="black"/>
</g>
<defs>
<clipPath id="clip0_743_14928">
<rect width="51" height="51" fill="white"/>
</clipPath>
</defs>
</svg>
