<svg width="63" height="13" viewBox="0 0 63 13" fill="none" xmlns="http://www.w3.org/2000/svg">
<g clip-path="url(#clip0_743_14931)">
<path d="M41.8801 0.0562744H52.8537V2.1131H48.5006V12.9337H46.3239V2.1131H41.8801V0.0562744ZM23.8329 0.0562744V2.1131H15.0369V5.42185H22.1106V7.47867H15.0369V10.8769H23.8329V12.9339H12.8603V2.1131H12.8594V0.0562744H23.8329ZM29.3123 0.0616328H26.4639L36.6663 12.9391H39.5231L34.4212 6.50474L39.5149 0.0713754L36.6663 0.075922L32.9951 4.70625L29.3123 0.0616328ZM32.2352 9.2601L30.8088 7.45902L26.4557 12.949H29.3123L32.2352 9.2601Z" fill="white"/>
<path fill-rule="evenodd" clip-rule="evenodd" d="M12.9369 12.9338L2.72067 0.0510254H0V12.9285H2.17654V2.80363L10.2026 12.9338H12.9369Z" fill="white"/>
<path d="M53.3424 12.8552C53.2667 12.8564 53.1915 12.8422 53.1213 12.8133C53.0511 12.7844 52.9874 12.7414 52.9339 12.6869C52.8203 12.5747 52.7642 12.439 52.7657 12.2781C52.7642 12.1217 52.8203 11.9874 52.9339 11.8752C52.9874 11.8208 53.0511 11.7778 53.1213 11.7489C53.1915 11.72 53.2667 11.7058 53.3424 11.707C53.4957 11.707 53.6299 11.763 53.7434 11.8752C53.8586 11.9873 53.916 12.1217 53.9176 12.2781C53.9173 12.3807 53.8892 12.4813 53.8363 12.5687C53.7845 12.6552 53.712 12.7268 53.6254 12.7769C53.5399 12.8288 53.442 12.8559 53.3424 12.8552ZM57.0573 7.43017H58.0218V11.2038C58.0204 11.5505 57.9465 11.8471 57.8021 12.0965C57.6561 12.346 57.454 12.5363 57.1945 12.6705C56.9364 12.8034 56.6341 12.8714 56.2905 12.8714C55.9763 12.8714 55.6947 12.8138 55.444 12.7016C55.1932 12.5895 54.9942 12.4213 54.8482 12.1998C54.7006 11.9785 54.6283 11.7025 54.6283 11.372H55.5944C55.5959 11.5165 55.6283 11.6421 55.6902 11.7468C55.7511 11.8504 55.8402 11.9339 55.9468 11.9873C56.0573 12.0434 56.1843 12.0715 56.3272 12.0715C56.4822 12.0715 56.6149 12.0391 56.7225 11.9725C56.8301 11.9075 56.9128 11.8101 56.9703 11.6804C57.0263 11.5521 57.0559 11.3926 57.0573 11.2038V7.43017ZM61.9904 8.90601C61.9669 8.67722 61.8636 8.49861 61.6837 8.37179C61.5022 8.24351 61.2678 8.17986 60.9801 8.17986C60.7782 8.17986 60.6042 8.21087 60.4596 8.27144C60.3151 8.33347 60.203 8.41596 60.1263 8.52085C60.0497 8.62558 60.0113 8.74509 60.0083 8.87938C60.0083 8.99158 60.0348 9.08884 60.0864 9.17003C60.1381 9.25284 60.2073 9.32218 60.2973 9.3782C60.3899 9.43741 60.4889 9.48547 60.5924 9.52142C60.7014 9.55974 60.8106 9.59221 60.9197 9.61884L61.4226 9.7442C61.6229 9.79047 61.8189 9.8547 62.0081 9.93613C62.19 10.0125 62.3603 10.1149 62.5139 10.2401C62.6613 10.3606 62.782 10.5115 62.8679 10.6827C62.9549 10.8555 62.9992 11.0577 62.9992 11.2908C62.9992 11.6052 62.9195 11.8811 62.7587 12.1203C62.598 12.3578 62.3664 12.5437 62.0626 12.678C61.7603 12.8108 61.3946 12.8787 60.964 12.8787C60.5481 12.8787 60.1853 12.8138 59.88 12.6839C59.5733 12.5556 59.3343 12.3666 59.1618 12.1188C58.9892 11.8708 58.8963 11.5683 58.883 11.2127H59.8388C59.852 11.3985 59.911 11.5536 60.0113 11.6789C60.113 11.8028 60.2457 11.8944 60.408 11.9564C60.5717 12.0168 60.7545 12.0478 60.9566 12.0478C61.1675 12.0478 61.3533 12.0154 61.514 11.952C61.6733 11.8885 61.7986 11.7999 61.8887 11.6848C61.9801 11.5711 62.0259 11.437 62.0273 11.2834C62.0259 11.1432 61.9844 11.0266 61.9048 10.9351C61.8237 10.8436 61.7117 10.7668 61.5685 10.705C61.4049 10.6364 61.2363 10.5806 61.0642 10.5382L60.4537 10.3817C60.0127 10.268 59.6632 10.0954 59.408 9.86371C59.1515 9.63199 59.0246 9.3251 59.0246 8.93978C59.0246 8.62412 59.1101 8.34662 59.2828 8.10906C59.4537 7.87151 59.6883 7.68688 59.9848 7.55568C60.2826 7.42286 60.6189 7.35791 60.9934 7.35791C61.3739 7.35791 61.7072 7.42286 61.9948 7.55568C62.2823 7.68705 62.5081 7.87005 62.6717 8.10322C62.8354 8.33639 62.921 8.60334 62.9254 8.90601H61.9904Z" fill="white"/>
</g>
<defs>
<clipPath id="clip0_743_14931">
<rect width="63" height="13" fill="white"/>
</clipPath>
</defs>
</svg>
