<svg width="39" height="44" viewBox="0 0 39 44" fill="none" xmlns="http://www.w3.org/2000/svg">
<path d="M17.5161 0.404233C18.0174 0.120525 18.5839 0 19.1667 0C19.7494 0 20.3201 0.120525 20.8172 0.404233L36.6828 9.5665C37.7095 10.1601 38.3333 11.275 38.3333 12.4634V30.7543C38.3333 31.9421 37.7095 33.0539 36.6828 33.6511L20.8172 42.7797C20.3106 43.0729 19.7541 43.2176 19.1667 43.2176C18.5873 43.2176 18.0227 43.0729 17.5161 42.7797L12.1939 39.6471C11.4043 39.2048 11.7991 39.0639 12.0592 38.9734C13.1142 38.6074 13.3257 38.5333 14.4508 37.8955C14.568 37.8297 14.7338 37.8243 14.855 37.8955L18.9309 40.3208C19.0791 40.4016 19.2664 40.4016 19.4025 40.3208L35.268 31.1922C35.4162 31.108 35.5038 30.929 35.5038 30.7543V12.4634C35.5038 12.2845 35.3852 12.1161 35.2343 12.0255L19.4025 2.89691C19.2556 2.81175 19.0791 2.81175 18.9309 2.89691L3.09903 12.0255C2.94542 12.1134 2.82953 12.2897 2.82953 12.4634V30.7543C2.82953 30.929 2.94677 31.0755 3.09903 31.1585L7.41068 33.6848C9.76592 34.8622 11.217 33.4612 11.217 32.068V14.0129C11.217 13.7576 11.434 13.5749 11.6886 13.5749H13.6761C13.9267 13.5749 14.1476 13.7576 14.1476 14.0129V32.068C14.1476 35.2112 12.4459 37.0196 9.46546 37.0196L9.42428 37.0196C8.52664 37.0198 7.77656 37.02 5.7938 36.0428L1.65057 33.6511C0.62386 33.0581 0 31.9421 0 30.7543V12.4634C0 11.275 0.62386 10.1576 1.65057 9.5665L17.5161 0.404233Z" fill="#83CD29"/>
<path d="M16.2024 18.19C16.2024 14.9926 18.8932 13.0699 23.411 13.0699C28.4879 13.0699 31.0089 14.8478 31.3269 18.628C31.339 18.7584 31.2784 18.8677 31.1922 18.9647C31.1046 19.0556 30.982 19.1332 30.8553 19.1332H28.8005C28.5876 19.1332 28.4057 18.969 28.3626 18.7627C27.8695 16.5678 26.6663 15.8657 23.411 15.8657C19.7663 15.8657 19.3688 17.1378 19.3688 18.089C19.3688 19.2414 19.8377 19.5601 24.7583 20.2111C29.6278 20.855 31.9669 21.7737 31.9669 25.1965C31.9669 28.6491 29.0714 30.6198 24.051 30.6198C17.1159 30.6198 15.6635 27.4622 15.6635 24.7922C15.6635 24.5385 15.8817 24.3207 16.135 24.3207H18.1898C18.4189 24.3207 18.5914 24.5012 18.6277 24.7249C18.9363 26.8108 19.8579 27.8575 24.051 27.8575C27.3885 27.8575 28.8005 27.1023 28.8005 25.3312C28.8005 24.3101 28.3963 23.5485 23.2088 23.0407C18.8729 22.6116 16.2024 21.6587 16.2024 18.19Z" fill="#83CD29"/>
</svg>
