<svg width="44" height="43" viewBox="0 0 44 43" fill="none" xmlns="http://www.w3.org/2000/svg">
<path d="M21.6378 0.00035172C19.8318 0.00850059 18.1072 0.158069 16.5897 0.418828C12.1193 1.18576 11.3077 2.79103 11.3077 5.7514V9.66116H21.8717V10.9644H11.3077H7.3431C4.27291 10.9644 1.58456 12.7564 0.74368 16.1655C-0.226266 20.073 -0.269288 22.5114 0.74368 26.5915C1.49461 29.6286 3.28792 31.7926 6.35812 31.7926H9.99026V27.1056C9.99026 23.7196 13.0071 20.7328 16.5897 20.7328H27.1414C30.0786 20.7328 32.4234 18.3843 32.4234 15.5198V5.7514C32.4234 2.97126 30.0082 0.882823 27.1414 0.418828C25.3266 0.125473 23.4437 -0.00779715 21.6378 0.00035172ZM15.9248 3.1449C17.016 3.1449 17.9071 4.02437 17.9071 5.10576C17.9071 6.1833 17.016 7.05466 15.9248 7.05466C14.8297 7.05466 13.9425 6.1833 13.9425 5.10576C13.9425 4.02438 14.8297 3.1449 15.9248 3.1449Z" fill="url(#paint0_linear_743_14898)"/>
<path d="M33.7417 10.9636V15.519C33.7417 19.0508 30.6583 22.0233 27.1423 22.0233H16.5906C13.7003 22.0233 11.3086 24.4255 11.3086 27.2364V37.0048C11.3086 39.7849 13.7981 41.4202 16.5906 42.2178C19.9346 43.1726 23.1413 43.3452 27.1423 42.2178C29.8018 41.47 32.4243 39.9652 32.4243 37.0048V33.095H21.8726V31.7918H32.4243H37.7063C40.7765 31.7918 41.9206 29.7121 42.9883 26.5907C44.0912 23.3772 44.0443 20.287 42.9883 16.1647C42.2295 13.1966 40.7804 10.9636 37.7063 10.9636H33.7417ZM27.8072 35.7015C28.9023 35.7015 29.7894 36.5729 29.7894 37.6504C29.7894 38.7318 28.9023 39.6113 27.8072 39.6113C26.716 39.6113 25.8249 38.7318 25.8249 37.6504C25.8249 36.5729 26.716 35.7015 27.8072 35.7015Z" fill="url(#paint1_linear_743_14898)"/>
<defs>
<linearGradient id="paint0_linear_743_14898" x1="3.44794e-08" y1="2.90855e-08" x2="23.7556" y2="20.8457" gradientUnits="userSpaceOnUse">
<stop stop-color="#5A9FD4"/>
<stop offset="1" stop-color="#306998"/>
</linearGradient>
<linearGradient id="paint1_linear_743_14898" x1="27.5533" y1="37.3217" x2="19.1504" y2="25.1963" gradientUnits="userSpaceOnUse">
<stop stop-color="#FFD43B"/>
<stop offset="1" stop-color="#FFE873"/>
</linearGradient>
</defs>
</svg>
