<svg width="48" height="42" viewBox="0 0 48 42" fill="none" xmlns="http://www.w3.org/2000/svg">
<g clip-path="url(#clip0_787_3408)">
<path d="M23.9998 24.9194C26.2969 24.9194 28.1592 23.0572 28.1592 20.76C28.1592 18.4628 26.2969 16.6006 23.9998 16.6006C21.7026 16.6006 19.8403 18.4628 19.8403 20.76C19.8403 23.0572 21.7026 24.9194 23.9998 24.9194Z" fill="white"/>
<path d="M23.9995 29.282C36.3259 29.282 46.3184 25.4667 46.3184 20.7603C46.3184 16.0538 36.3259 12.2385 23.9995 12.2385C11.6732 12.2385 1.68066 16.0538 1.68066 20.7603C1.68066 25.4667 11.6732 29.282 23.9995 29.282Z" stroke="white" stroke-width="1.75"/>
<path d="M16.6191 25.021C22.7822 35.6959 31.0826 42.442 35.1585 40.0888C39.2344 37.7356 37.5423 27.1742 31.3791 16.4992C25.216 5.82428 16.9156 -0.921812 12.8397 1.4314C8.7638 3.78462 10.4559 14.346 16.6191 25.021Z" stroke="white" stroke-width="1.75"/>
<path d="M16.6196 16.4991C10.4564 27.174 8.7643 37.7354 12.8402 40.0886C16.9161 42.4418 25.2165 35.6958 31.3796 25.0208C37.5428 14.3459 39.2349 3.78448 35.159 1.43127C31.0831 -0.921944 22.7827 5.82415 16.6196 16.4991Z" stroke="white" stroke-width="1.75"/>
</g>
<defs>
<clipPath id="clip0_787_3408">
<rect width="46.6667" height="41.5201" fill="white" transform="translate(0.666504)"/>
</clipPath>
</defs>
</svg>
